<svg width="16" height="16" viewBox="0 0 16 16" fill="none" xmlns="http://www.w3.org/2000/svg">
<path fill-rule="evenodd" clip-rule="evenodd" d="M8 4C10.21 4 12 5.79 12 8C12 10.21 10.21 12 8 12C5.79 12 4 10.21 4 8C4 5.79 5.79 4 8 4ZM8 6C9.105 6 10 6.895 10 8C10 9.105 9.105 10 8 10C6.895 10 6 9.105 6 8C6 6.895 6.895 6 8 6ZM8 0C8.552 0 9 0.448 9 1V2C9 2.552 8.552 3 8 3C7.448 3 7 2.552 7 2V1C7 0.448 7.448 0 8 0ZM8 13C8.552 13 9 13.448 9 14V15C9 15.552 8.552 16 8 16C7.448 16 7 15.552 7 15V14C7 13.448 7.448 13 8 13ZM1 7H2C2.552 7 3 7.448 3 8C3 8.552 2.552 9 2 9H1C0.448 9 0 8.552 0 8C0 7.448 0.448 7 1 7ZM14 7H15C15.552 7 16 7.448 16 8C16 8.552 15.552 9 15 9H14C13.448 9 13 8.552 13 8C13 7.448 13.448 7 14 7ZM2.343 2.34C2.733 1.95 3.367 1.95 3.757 2.34L4.464 3.05C4.74 3.297 4.856 3.677 4.767 4.037C4.677 4.397 4.397 4.677 4.037 4.767C3.677 4.854 3.297 4.737 3.05 4.46L2.343 3.76C1.953 3.367 1.953 2.733 2.343 2.34ZM11.536 11.54C11.926 11.15 12.56 11.15 12.95 11.54L13.657 12.24C14.049 12.63 14.05 13.265 13.66 13.657C13.27 14.049 12.635 14.05 12.243 13.66L11.536 12.95C11.348 12.763 11.243 12.51 11.243 12.245C11.243 11.98 11.348 11.727 11.536 11.54ZM2.343 12.24L3.05 11.54C3.297 11.263 3.676 11.146 4.036 11.234C4.396 11.324 4.676 11.604 4.766 11.964C4.856 12.324 4.74 12.704 4.464 12.95L3.757 13.66C3.365 14.05 2.73 14.05 2.34 13.657C1.95 13.265 1.95 12.63 2.343 12.24ZM11.536 3.05L12.243 2.34C12.497 2.087 12.866 1.99 13.211 2.083C13.558 2.176 13.827 2.447 13.919 2.793C14.011 3.139 13.912 3.507 13.659 3.76L12.951 4.46C12.704 4.737 12.325 4.854 11.965 4.766C11.605 4.676 11.325 4.396 11.235 4.036C11.145 3.676 11.261 3.296 11.537 3.05H11.536Z" fill="white"/>
</svg>
