<svg width="204" height="20" viewBox="0 0 204 20" fill="none" xmlns="http://www.w3.org/2000/svg">
<path d="M0.421875 14V0.428049H3.94988L10.4659 8.72605V0.428049H13.9759V14H10.4659L3.94988 5.70205V14H0.421875Z" fill="#313544"/>
<path d="M22.1503 0.428049V14H18.6223V0.428049H22.1503Z" fill="#313544"/>
<path d="M34.5075 3.41605H30.3135V5.68405H34.2735V8.67205H30.3135V11.012H34.5075V14H26.7855V0.428049H34.5075V3.41605Z" fill="#313544"/>
<path d="M42.3792 5.66605H47.4732V0.428049H51.0012V14H47.4732V8.40205H42.3792V14H38.8512V0.428049H42.3792V5.66605Z" fill="#313544"/>
<path d="M63.0253 8.96005L61.4413 4.44205L59.8573 8.96005H63.0253ZM63.9613 11.642H58.9213L58.1113 14H54.3493L59.5153 0.428049H63.3673L68.5333 14H64.7713L63.9613 11.642Z" fill="#313544"/>
<path d="M71.877 14V0.428049H75.405L81.921 8.72605V0.428049H85.431V14H81.921L75.405 5.70205V14H71.877Z" fill="#313544"/>
<path d="M93.6053 11.012H94.4153C95.0273 11.012 95.5733 10.916 96.0533 10.724C96.5333 10.532 96.9353 10.268 97.2593 9.93205C97.5953 9.59605 97.8474 9.20005 98.0154 8.74405C98.1954 8.27605 98.2853 7.76605 98.2853 7.21405C98.2853 6.67405 98.1954 6.17005 98.0154 5.70205C97.8354 5.23405 97.5773 4.83205 97.2413 4.49605C96.9174 4.16005 96.5154 3.89605 96.0353 3.70405C95.5553 3.51205 95.0153 3.41605 94.4153 3.41605H93.6053V11.012ZM90.0773 0.428049H95.2973C96.2214 0.428049 97.0853 0.614049 97.8893 0.986049C98.7053 1.35805 99.4133 1.85605 100.013 2.48005C100.625 3.09205 101.105 3.81205 101.453 4.64005C101.801 5.45605 101.975 6.31405 101.975 7.21405C101.975 8.10205 101.801 8.96005 101.453 9.78805C101.117 10.604 100.643 11.324 100.031 11.948C99.4314 12.5721 98.7234 13.07 97.9073 13.442C97.1033 13.814 96.2333 14 95.2973 14H90.0773V0.428049Z" fill="#313544"/>
<path d="M109.556 0.428049V11.012H113.786V14H106.028V0.428049H109.556Z" fill="#313544"/>
<path d="M120.222 7.21405C120.222 7.75405 120.324 8.25205 120.528 8.70805C120.732 9.16405 121.008 9.56005 121.356 9.89605C121.704 10.232 122.106 10.496 122.562 10.688C123.03 10.868 123.522 10.958 124.038 10.958C124.554 10.958 125.04 10.868 125.496 10.688C125.964 10.496 126.372 10.232 126.72 9.89605C127.08 9.56005 127.362 9.16405 127.566 8.70805C127.77 8.25205 127.872 7.75405 127.872 7.21405C127.872 6.67405 127.77 6.17605 127.566 5.72005C127.362 5.26405 127.08 4.86805 126.72 4.53205C126.372 4.19605 125.964 3.93805 125.496 3.75805C125.04 3.56605 124.554 3.47005 124.038 3.47005C123.522 3.47005 123.03 3.56605 122.562 3.75805C122.106 3.93805 121.704 4.19605 121.356 4.53205C121.008 4.86805 120.732 5.26405 120.528 5.72005C120.324 6.17605 120.222 6.67405 120.222 7.21405ZM116.532 7.21405C116.532 6.20605 116.718 5.27005 117.09 4.40605C117.462 3.53005 117.978 2.76805 118.638 2.12005C119.298 1.47205 120.084 0.968049 120.996 0.608049C121.92 0.236049 122.934 0.0500488 124.038 0.0500488C125.13 0.0500488 126.138 0.236049 127.062 0.608049C127.986 0.968049 128.778 1.47205 129.438 2.12005C130.11 2.76805 130.632 3.53005 131.004 4.40605C131.376 5.27005 131.562 6.20605 131.562 7.21405C131.562 8.22205 131.376 9.16405 131.004 10.04C130.632 10.904 130.11 11.66 129.438 12.308C128.778 12.956 127.986 13.4661 127.062 13.838C126.138 14.198 125.13 14.378 124.038 14.378C122.934 14.378 121.92 14.198 120.996 13.838C120.084 13.4661 119.298 12.956 118.638 12.308C117.978 11.66 117.462 10.904 117.09 10.04C116.718 9.16405 116.532 8.22205 116.532 7.21405Z" fill="#313544"/>
<path d="M137.648 0.428049L139.988 9.19405L142.868 0.428049H145.676L148.556 9.19405L150.896 0.428049H154.586L150.536 14H146.936L144.272 6.13405L141.608 14H138.008L133.958 0.428049H137.648Z" fill="#313544"/>
<path d="M164.476 8.96005L162.892 4.44205L161.308 8.96005H164.476ZM165.412 11.642H160.372L159.562 14H155.8L160.966 0.428049H164.818L169.984 14H166.222L165.412 11.642Z" fill="#313544"/>
<path d="M173.545 12.272C173.545 11.984 173.599 11.714 173.707 11.462C173.815 11.198 173.965 10.97 174.157 10.778C174.349 10.586 174.571 10.436 174.823 10.328C175.087 10.22 175.363 10.166 175.651 10.166C175.939 10.166 176.209 10.22 176.461 10.328C176.725 10.436 176.953 10.586 177.145 10.778C177.337 10.97 177.487 11.198 177.595 11.462C177.703 11.714 177.757 11.984 177.757 12.272C177.757 12.5601 177.703 12.836 177.595 13.1C177.487 13.352 177.337 13.574 177.145 13.766C176.953 13.958 176.725 14.108 176.461 14.216C176.209 14.324 175.939 14.378 175.651 14.378C175.363 14.378 175.087 14.324 174.823 14.216C174.571 14.108 174.349 13.958 174.157 13.766C173.965 13.574 173.815 13.352 173.707 13.1C173.599 12.836 173.545 12.5601 173.545 12.272Z" fill="#313544"/>
<path d="M185.458 6.65605H186.628C187.924 6.65605 188.572 6.09205 188.572 4.96405C188.572 3.83605 187.924 3.27205 186.628 3.27205H185.458V6.65605ZM185.458 14H181.93V0.428049H187.546C189.07 0.428049 190.234 0.824049 191.038 1.61605C191.854 2.40805 192.262 3.52405 192.262 4.96405C192.262 6.40405 191.854 7.52005 191.038 8.31205C190.234 9.10405 189.07 9.50005 187.546 9.50005H185.458V14Z" fill="#313544"/>
<path d="M199.457 0.428049V11.012H203.687V14H195.929V0.428049H199.457Z" fill="#313544"/>
<path d="M0 17H34.5V20H0V17Z" fill="#C10348"/>
</svg>
