<svg width="12" height="17" viewBox="0 0 12 17" fill="none" xmlns="http://www.w3.org/2000/svg">
<path fill-rule="evenodd" clip-rule="evenodd" d="M11.425 13.4201C9.333 12.4271 7.999 10.3171 7.999 8.00005C7.999 5.68405 9.333 3.57405 11.425 2.58005C11.775 2.41605 12 2.06305 12 1.67605C12 1.28805 11.775 0.936053 11.424 0.771053C8.064 -0.820947 4.047 0.114053 1.734 3.02705C-0.578 5.94005 -0.578 10.0631 1.734 12.9771C4.047 15.8891 8.064 16.8241 11.424 15.2321C11.774 15.0681 11.999 14.7151 11.999 14.3281C11.999 13.9401 11.774 13.5881 11.423 13.4231L11.425 13.4201ZM5.995 8.00005C5.995 10.2641 6.958 12.4201 8.645 13.9301C8.431 13.9701 8.215 13.9921 7.995 14.0001C4.683 14.0001 1.995 11.3141 1.995 8.00005C1.995 4.68705 4.683 2.00005 7.995 2.00005C8.215 2.01005 8.431 2.03205 8.645 2.07005C6.958 3.58005 5.995 5.73805 5.995 8.00005Z" fill="#313544"/>
</svg>
